<svg width="900" height="900" viewBox="0 0 900 900" fill="none" xmlns="http://www.w3.org/2000/svg">
<rect width="900" height="900" fill="#1E1E1E"/>
<rect width="900" height="900" fill="white"/>
<path d="M344.827 227.401L344.827 187.012L344.827 146.622" stroke="#5F5F5F" stroke-width="2"/>
<path d="M344.827 227.401L375.358 199.128L405.89 170.856" stroke="#5F5F5F" stroke-width="2"/>
<path d="M286.271 97.7187V193.149L245.492 231.131V135.701L286.271 97.7187Z" fill="#EA9755" stroke="black"/>
<path d="M318.409 92.9V191.764L297.672 211.768L277.629 231.103V182.153V132.238L318.409 92.9Z" fill="#E587B6" stroke="black"/>
<rect x="129.794" y="140.691" width="79.3454" height="79.7797" fill="#BC85D9" stroke="black"/>
<rect x="113.725" y="124.535" width="79.3454" height="79.7797" fill="#BC85D9" stroke="black"/>
<rect x="97.6558" y="108.379" width="79.3454" height="79.7797" fill="#BC85D9" stroke="black"/>
<rect x="81.5864" y="92.223" width="79.3454" height="79.7797" fill="#BC85D9" stroke="black"/>
<rect x="33.5" y="45.5" width="399" height="239" rx="29.5" stroke="black" stroke-dasharray="6 6"/>
<path d="M344.827 797.401L344.827 757.012L344.827 716.622" stroke="#5F5F5F" stroke-width="2"/>
<path d="M344.827 797.401L405.89 740.856" stroke="#5F5F5F" stroke-width="2"/>
<path d="M286.271 667.719V763.149L245.492 801.131V705.701L286.271 667.719Z" fill="#EA9755" stroke="black"/>
<path d="M318.409 662.9V761.764L297.672 781.768L277.629 801.103V752.153V702.238L318.409 662.9Z" fill="#E587B6" stroke="black"/>
<rect x="129.794" y="710.691" width="79.3454" height="79.7797" fill="#BC85D9" stroke="black"/>
<rect x="113.725" y="694.535" width="79.3454" height="79.7797" fill="#BC85D9" stroke="black"/>
<rect x="97.6558" y="678.379" width="79.3454" height="79.7797" fill="#BC85D9" stroke="black"/>
<rect x="81.5864" y="662.223" width="79.3454" height="79.7797" fill="#BC85D9" stroke="black"/>
<rect x="33.5" y="615.5" width="399" height="239" rx="29.5" stroke="black" stroke-dasharray="6 6"/>
<path d="M344.827 512.401L344.827 472.011L344.827 431.622" stroke="#5F5F5F" stroke-width="2"/>
<path d="M344.827 512.401L405.89 455.856" stroke="#5F5F5F" stroke-width="2"/>
<path d="M286.271 382.719V478.149L245.492 516.131V420.701L286.271 382.719Z" fill="#EA9755" stroke="black"/>
<path d="M318.409 377.9V476.764L297.672 496.768L277.629 516.103V467.153V417.238L318.409 377.9Z" fill="#E587B6" stroke="black"/>
<rect x="129.794" y="425.691" width="79.3454" height="79.7797" fill="#BC85D9" stroke="black"/>
<rect x="113.725" y="409.535" width="79.3454" height="79.7797" fill="#BC85D9" stroke="black"/>
<rect x="97.6558" y="393.379" width="79.3454" height="79.7797" fill="#BC85D9" stroke="black"/>
<rect x="81.5864" y="377.223" width="79.3454" height="79.7797" fill="#BC85D9" stroke="black"/>
<rect x="33.5" y="330.5" width="399" height="239" rx="29.5" stroke="black" stroke-dasharray="6 6"/>
<path d="M777.828 227.401L777.828 187.011L777.828 146.622" stroke="#5F5F5F" stroke-width="2"/>
<path d="M777.828 227.401L838.891 170.855" stroke="#5F5F5F" stroke-width="2"/>
<path d="M719.271 97.7188V193.149L678.491 231.131V135.701L719.271 97.7188Z" fill="#EA9755" stroke="black"/>
<path d="M751.408 92.9002V191.764L730.672 211.768L710.629 231.103V182.153V132.239L751.408 92.9002Z" fill="#E587B6" stroke="black"/>
<rect x="562.794" y="140.692" width="79.3454" height="79.7797" fill="#BC85D9" stroke="black"/>
<rect x="546.725" y="124.535" width="79.3454" height="79.7797" fill="#BC85D9" stroke="black"/>
<rect x="530.655" y="108.379" width="79.3454" height="79.7797" fill="#BC85D9" stroke="black"/>
<rect x="514.586" y="92.2231" width="79.3454" height="79.7797" fill="#BC85D9" stroke="black"/>
<rect x="466.5" y="45.5" width="399" height="239" rx="29.5" stroke="black" stroke-dasharray="6 6"/>
<path d="M777.828 797.401L777.828 757.011L777.828 716.622" stroke="#5F5F5F" stroke-width="2"/>
<path d="M777.828 797.401L838.891 740.855" stroke="#5F5F5F" stroke-width="2"/>
<path d="M719.271 667.719V763.149L678.491 801.13V705.7L719.271 667.719Z" fill="#EA9755" stroke="black"/>
<path d="M751.408 662.9V761.764L730.672 781.768L710.629 801.102V752.153V702.238L751.408 662.9Z" fill="#E587B6" stroke="black"/>
<rect x="562.794" y="710.691" width="79.3454" height="79.7797" fill="#BC85D9" stroke="black"/>
<rect x="546.725" y="694.535" width="79.3454" height="79.7797" fill="#BC85D9" stroke="black"/>
<rect x="530.655" y="678.378" width="79.3454" height="79.7797" fill="#BC85D9" stroke="black"/>
<rect x="514.586" y="662.223" width="79.3454" height="79.7797" fill="#BC85D9" stroke="black"/>
<rect x="466.5" y="615.5" width="399" height="239" rx="29.5" stroke="black" stroke-dasharray="6 6"/>
<path d="M777.828 512.401L777.828 472.011L777.828 431.622" stroke="#5F5F5F" stroke-width="2"/>
<path d="M777.828 512.401L838.891 455.855" stroke="#5F5F5F" stroke-width="2"/>
<path d="M719.271 382.719V478.149L678.491 516.131V420.701L719.271 382.719Z" fill="#EA9755" stroke="black"/>
<path d="M751.408 377.9V476.764L730.672 496.768L710.629 516.103V467.153V417.239L751.408 377.9Z" fill="#E587B6" stroke="black"/>
<rect x="562.794" y="425.692" width="79.3454" height="79.7797" fill="#BC85D9" stroke="black"/>
<rect x="546.725" y="409.535" width="79.3454" height="79.7797" fill="#BC85D9" stroke="black"/>
<rect x="530.655" y="393.379" width="79.3454" height="79.7797" fill="#BC85D9" stroke="black"/>
<rect x="514.586" y="377.223" width="79.3454" height="79.7797" fill="#BC85D9" stroke="black"/>
<rect x="466.5" y="330.5" width="399" height="239" rx="29.5" stroke="black" stroke-dasharray="6 6"/>
</svg>
